<mxfile host="app.diagrams.net" modified="2023-09-27T05:18:30.096Z" agent="Mozilla/5.0 (Macintosh; Intel Mac OS X 10_15_7) AppleWebKit/537.36 (KHTML, like Gecko) Chrome/116.0.0.0 Safari/537.36" version="21.7.2" etag="xkfA36MEyZAXlaDx04TN" type="github">
  <diagram name="Page-1" id="sAtC0V_FbRX4iZDyK6CY">
    <mxGraphModel>
      <root>
        <mxCell id="0" />
        <mxCell id="1" parent="0" />
      </root>
    </mxGraphModel>
  </diagram>
</mxfile>
